<svg width="1200" height="700" viewBox="0 0 1200 700" xmlns="http://www.w3.org/2000/svg" fill="none">
  <defs>
    <linearGradient id="b" x1="0" y1="0" x2="1200" y2="700" gradientUnits="userSpaceOnUse">
      <stop stop-color="#EAF6FA"/>
      <stop offset="1" stop-color="#D5EBF3"/>
    </linearGradient>
  </defs>
  <rect width="1200" height="700" rx="20" fill="url(#b)"/>
  <rect x="70" y="90" width="1060" height="90" rx="14" fill="#BFE0EC"/>
  <rect x="110" y="120" width="180" height="28" rx="8" fill="#3E7D96"/>
  <rect x="330" y="120" width="140" height="28" rx="8" fill="#6BA4B8"/>
  <rect x="500" y="120" width="140" height="28" rx="8" fill="#6BA4B8"/>
  <rect x="670" y="120" width="140" height="28" rx="8" fill="#6BA4B8"/>
  <rect x="840" y="120" width="240" height="28" rx="8" fill="#8DBFCE"/>

  <rect x="70" y="220" width="330" height="390" rx="16" fill="#D6EDF5"/>
  <rect x="435" y="220" width="330" height="390" rx="16" fill="#D6EDF5"/>
  <rect x="800" y="220" width="330" height="390" rx="16" fill="#D6EDF5"/>

  <rect x="130" y="280" width="210" height="34" rx="9" fill="#5C96AB"/>
  <rect x="130" y="332" width="170" height="18" rx="6" fill="#95C0CF"/>
  <rect x="130" y="362" width="190" height="18" rx="6" fill="#95C0CF"/>
  <rect x="130" y="392" width="160" height="18" rx="6" fill="#95C0CF"/>

  <rect x="495" y="280" width="210" height="34" rx="9" fill="#5C96AB"/>
  <rect x="495" y="332" width="170" height="18" rx="6" fill="#95C0CF"/>
  <rect x="495" y="362" width="190" height="18" rx="6" fill="#95C0CF"/>
  <rect x="495" y="392" width="160" height="18" rx="6" fill="#95C0CF"/>

  <rect x="860" y="280" width="210" height="34" rx="9" fill="#5C96AB"/>
  <rect x="860" y="332" width="170" height="18" rx="6" fill="#95C0CF"/>
  <rect x="860" y="362" width="190" height="18" rx="6" fill="#95C0CF"/>
  <rect x="860" y="392" width="160" height="18" rx="6" fill="#95C0CF"/>
</svg>
