<svg width="1600" height="900" viewBox="0 0 1600 900" xmlns="http://www.w3.org/2000/svg" fill="none">
  <defs>
    <linearGradient id="g1" x1="0" y1="0" x2="1600" y2="900" gradientUnits="userSpaceOnUse">
      <stop stop-color="#0D2D44"/>
      <stop offset="1" stop-color="#16617B"/>
    </linearGradient>
  </defs>
  <rect width="1600" height="900" fill="url(#g1)"/>
  <rect x="90" y="140" width="450" height="620" rx="20" fill="#F1FBFE" fill-opacity="0.15"/>
  <rect x="200" y="220" width="240" height="300" rx="16" fill="#D6EEF5"/>
  <rect x="230" y="260" width="180" height="24" rx="6" fill="#7DB7C8"/>
  <rect x="230" y="306" width="150" height="16" rx="4" fill="#9DCDDA"/>
  <rect x="230" y="336" width="160" height="16" rx="4" fill="#9DCDDA"/>
  <rect x="230" y="366" width="120" height="16" rx="4" fill="#9DCDDA"/>
  <rect x="640" y="140" width="870" height="620" rx="20" fill="#F1FBFE" fill-opacity="0.12"/>
  <rect x="700" y="220" width="760" height="90" rx="12" fill="#D6EEF5"/>
  <rect x="740" y="252" width="220" height="26" rx="7" fill="#6CAFC2"/>
  <rect x="1000" y="252" width="190" height="26" rx="7" fill="#8DC4D3"/>
  <rect x="1210" y="252" width="190" height="26" rx="7" fill="#8DC4D3"/>
  <rect x="700" y="340" width="240" height="360" rx="12" fill="#DDF2F8"/>
  <rect x="960" y="340" width="240" height="360" rx="12" fill="#DDF2F8"/>
  <rect x="1220" y="340" width="240" height="360" rx="12" fill="#DDF2F8"/>
  <rect x="760" y="390" width="120" height="160" rx="10" fill="#0E4058"/>
  <circle cx="820" cy="590" r="12" fill="#92CCDB"/>
  <rect x="1020" y="390" width="120" height="160" rx="10" fill="#0E4058"/>
  <rect x="1280" y="390" width="120" height="160" rx="10" fill="#0E4058"/>
</svg>
